# xmcd CD database file
#
# Track frame offsets:
#	150
#	12677
#	24004
#	39981
#	54533
#	79136
#	91888
#	111090
#	121442
#	143569
#	171096
#	193148
#	213850
#	227877
#	249029
#	264931
#	290433
#	307835
#
# Disc length: 4394 seconds
#
# Revision: 0
# Processed by: cddbd v1.5.1PL0 Copyright (c) Steve Scherf et al.
# Submitted via: CDex 1.51
#
DISCID=e5112812
DTITLE=Bob Dylan - The Best Of
DYEAR=1999
DGENRE=Country
TTITLE0=Blowin' In The Wind
TTITLE1=Knockin' On Heaven's Door
TTITLE2=It Ain't Me Babe
TTITLE3=Times They Are A-Changing
TTITLE4=Mr. Tambourine Man
TTITLE5=She Belongs To Me
TTITLE6=It's All Over Now, Baby Blue
TTITLE7=Subterranean Homesick Blues
TTITLE8=One Of Us Must Know
TTITLE9=Like A Rolling Stone
TTITLE10=Just Like A Woman
TTITLE11=Rainy Day Woman #12 and 35
TTITLE12=I Want You
TTITLE13=Forever Young
TTITLE14=Obviously 5 Believers
TTITLE15=Gates Of Eden
TTITLE16=Leopard-Skin Pill-Box Hat
TTITLE17=Absolutely Sweet Mary
EXTD=YEAR: 1999
EXTT0=
EXTT1=
EXTT2=
EXTT3=
EXTT4=
EXTT5=
EXTT6=
EXTT7=
EXTT8=
EXTT9=
EXTT10=
EXTT11=
EXTT12=
EXTT13=
EXTT14=
EXTT15=
EXTT16=
EXTT17=
PLAYORDER=
